<svg width="26" height="28" viewBox="0 0 26 28" fill="none" xmlns="http://www.w3.org/2000/svg">
<path d="M25.7424 11.7312H22.6366V7.18666L25.7424 5.5866V11.7312Z" fill="#DC362E"/>
<path d="M25.7424 15.6415H22.6366V20.186L25.7424 21.7861V15.6415Z" fill="#DC362E"/>
<path d="M3.43642 3.91024L0.291402 -0.000137676L25.7089 5.58613L25.7089 7.262L25.7089 8.93788L3.43642 3.91024Z" fill="#DC362E"/>
<path d="M3.43739 23.4623L0.292379 27.3727L25.7099 21.7864L25.7099 20.1106L25.7099 18.4347L3.43739 23.4623Z" fill="#DC362E"/>
<path d="M3.64319 11.7311L0.291588 11.7311L0.291588 0.000478745L3.64319 2.55061L3.64319 11.7311Z" fill="#DC362E"/>
<path d="M3.64319 15.6414L0.291588 15.6414L0.291588 27.372L3.64319 24.8218L3.64319 15.6414Z" fill="#DC362E"/>
</svg>
