<svg width="34" height="34" viewBox="0 0 34 34" fill="none" xmlns="http://www.w3.org/2000/svg">
<path d="M16.3556 3.92193C16.6232 3.805 16.9275 3.805 17.1951 3.92193C22.3938 6.19334 27.3209 8.97002 31.9144 12.1897C32.2468 12.4228 32.4148 12.8267 32.3457 13.2267C32.2766 13.6268 31.9828 13.9509 31.5915 14.059C30.634 14.3232 29.6848 14.6079 28.7442 14.9112C24.9263 16.1425 21.2512 17.6918 17.7498 19.5279L17.7453 19.5303C17.5865 19.6135 17.4281 19.6974 17.2701 19.7818C16.9614 19.9468 16.5907 19.9468 16.2819 19.7818C16.1224 19.6966 15.9625 19.6119 15.8022 19.5279C14.0709 18.62 12.2971 17.7822 10.4845 17.0184V16.7057C10.4845 16.522 10.5788 16.3591 10.7246 16.2708C12.8287 14.996 14.999 13.8199 17.2292 12.7486C17.7512 12.4979 17.9711 11.8716 17.7204 11.3496C17.4697 10.8276 16.8433 10.6078 16.3213 10.8585C14.0297 11.9592 11.7998 13.1677 9.63806 14.4773C9.00426 14.8613 8.57818 15.4897 8.43803 16.1938C7.2429 15.734 6.03206 15.3058 4.80648 14.9106C3.86591 14.6073 2.91667 14.3232 1.95922 14.0589C1.56791 13.9509 1.27411 13.6267 1.20503 13.2267C1.13594 12.8267 1.30398 12.4227 1.63639 12.1897C6.22982 8.97 11.1569 6.19334 16.3556 3.92193Z" fill="#DC362E"/>
<path d="M18.2583 21.6313C21.6677 19.8096 25.2497 18.2696 28.9735 17.0421C29.1611 19.0199 29.2809 21.0174 29.3306 23.0321C29.3412 23.4644 29.0854 23.8588 28.6864 24.0254C24.7007 25.6895 20.9095 27.7272 17.3567 30.0948C17.0046 30.3294 16.546 30.3294 16.1939 30.0948C12.6411 27.7272 8.84995 25.6895 4.86422 24.0254C4.4652 23.8588 4.20938 23.4644 4.22003 23.0321C4.26967 21.0172 4.3895 19.0196 4.57719 17.0416C5.8647 17.466 7.13526 17.9277 8.38761 18.4256V20.2015C7.76084 20.5641 7.33915 21.2418 7.33915 22.0179C7.33915 22.7103 7.67477 23.3244 8.1922 23.7062C8.06707 24.2383 7.88187 24.759 7.63659 25.2576C8.26943 25.5563 8.89686 25.8646 9.51868 26.1823C9.87283 25.462 10.1296 24.706 10.289 23.9341C11.022 23.6073 11.533 22.8723 11.533 22.0179C11.533 21.2418 11.1113 20.5641 10.4845 20.2015V19.3002C12.1221 20.0157 13.7261 20.7937 15.2937 21.6313C16.22 22.1262 17.3321 22.1262 18.2583 21.6313Z" fill="#DC362E"/>
<path d="M6.23788 27.2075C6.82381 26.6216 7.29025 25.9616 7.63659 25.2576C8.26943 25.5563 8.89686 25.8646 9.51868 26.1823C9.07336 27.088 8.47377 27.9371 7.72063 28.6902C7.31118 29.0997 6.64733 29.0997 6.23788 28.6902C5.82843 28.2808 5.82843 27.6169 6.23788 27.2075Z" fill="#DC362E"/>
</svg>
