<svg width="47" height="47" viewBox="0 0 47 47" fill="none" xmlns="http://www.w3.org/2000/svg">
<circle cx="23.2437" cy="23.2437" r="22.7492" fill="white" stroke="#E9E9E9" stroke-width="0.989094"/>
<path d="M30.7437 25.4937V22.8687C30.7437 21.0047 29.2326 19.4937 27.3687 19.4937H25.8687C25.2473 19.4937 24.7437 18.99 24.7437 18.3687V16.8687C24.7437 15.0047 23.2326 13.4937 21.3687 13.4937H19.4937M23.2437 22.4937V28.4937M26.2437 25.4937H20.2437M21.7437 13.4937H16.8687C16.2473 13.4937 15.7437 13.9973 15.7437 14.6187V31.8687C15.7437 32.49 16.2473 32.9937 16.8687 32.9937H29.6187C30.24 32.9937 30.7437 32.49 30.7437 31.8687V22.4937C30.7437 17.5231 26.7142 13.4937 21.7437 13.4937Z" stroke="#232323" stroke-width="1.5" stroke-linecap="round" stroke-linejoin="round"/>
</svg>
