<svg width="48" height="48" viewBox="0 0 48 48" fill="none" xmlns="http://www.w3.org/2000/svg">
<rect x="0.5" y="0.5" width="47" height="47" rx="11.5" fill="#DC362E"/>
<rect x="0.5" y="0.5" width="47" height="47" rx="11.5" stroke="#E9E9E9"/>
<path fill-rule="evenodd" clip-rule="evenodd" d="M23.6165 32.6259C23.6416 32.6405 23.6614 32.6517 23.6754 32.6596L23.6987 32.6726C23.8844 32.7745 24.1148 32.7738 24.3007 32.6729L24.3246 32.6596C24.3386 32.6517 24.3584 32.6405 24.3835 32.6259C24.4339 32.5967 24.5058 32.5542 24.5963 32.4985C24.7771 32.3872 25.0323 32.223 25.3372 32.0076C25.9459 31.5776 26.7581 30.9395 27.5721 30.1061C29.1922 28.4474 30.875 25.9551 30.875 22.75C30.875 18.953 27.797 15.875 24 15.875C20.203 15.875 17.125 18.953 17.125 22.75C17.125 25.9551 18.8078 28.4474 20.4279 30.1061C21.2419 30.9395 22.0541 31.5776 22.6628 32.0076C22.9677 32.223 23.2229 32.3872 23.4037 32.4985C23.4942 32.5542 23.5661 32.5967 23.6165 32.6259ZM24 25.25C25.3807 25.25 26.5 24.1307 26.5 22.75C26.5 21.3693 25.3807 20.25 24 20.25C22.6193 20.25 21.5 21.3693 21.5 22.75C21.5 24.1307 22.6193 25.25 24 25.25Z" fill="white"/>
</svg>
