<svg width="34" height="34" viewBox="0 0 34 34" fill="none" xmlns="http://www.w3.org/2000/svg">
<path fill-rule="evenodd" clip-rule="evenodd" d="M10.4845 7.33934C10.4845 5.02315 12.3621 3.14551 14.6783 3.14551H18.8721C21.1883 3.14551 23.066 5.02315 23.066 7.33934V7.62589C24.3695 7.74521 25.6625 7.90126 26.9439 8.093C28.9766 8.39714 30.4052 10.1655 30.4052 12.1702V16.4104C30.4052 18.1036 29.3796 19.6989 27.6984 20.2579C24.2634 21.3999 20.5905 22.0178 16.7753 22.0178C12.96 22.0178 9.28702 21.3998 5.85206 20.2578C4.17085 19.6989 3.14526 18.1035 3.14526 16.4104V12.1702C3.14526 10.1655 4.57383 8.39714 6.60651 8.093C7.88793 7.90126 9.18094 7.74522 10.4845 7.62589V7.33934ZM20.9691 7.33934V7.46631C19.5818 7.38207 18.1835 7.33934 16.7752 7.33934C15.367 7.33934 13.9686 7.38207 12.5814 7.46631V7.33934C12.5814 6.18125 13.5202 5.24242 14.6783 5.24242H18.8721C20.0302 5.24242 20.9691 6.18125 20.9691 7.33934ZM16.7752 18.8724C17.3543 18.8724 17.8237 18.403 17.8237 17.8239C17.8237 17.2449 17.3543 16.7755 16.7752 16.7755C16.1962 16.7755 15.7268 17.2449 15.7268 17.8239C15.7268 18.403 16.1962 18.8724 16.7752 18.8724Z" fill="#DC362E"/>
<path d="M4.19372 25.7222V21.8136C4.50552 21.9846 4.83813 22.1305 5.1905 22.2477C8.83611 23.4597 12.7324 24.1147 16.7753 24.1147C20.8181 24.1147 24.7143 23.4597 28.3599 22.2477C28.7123 22.1305 29.0449 21.9846 29.3567 21.8136V25.7222C29.3567 27.752 27.8927 29.5352 25.8295 29.8091C22.8668 30.2025 19.8444 30.4054 16.7752 30.4054C13.706 30.4054 10.6836 30.2025 7.72092 29.8091C5.65771 29.5352 4.19372 27.752 4.19372 25.7222Z" fill="#DC362E"/>
</svg>
