<svg width="48" height="48" viewBox="0 0 48 48" fill="none" xmlns="http://www.w3.org/2000/svg">
<rect x="0.5" y="0.5" width="47" height="47" rx="11.5" fill="#DC362E"/>
<rect x="0.5" y="0.5" width="47" height="47" rx="11.5" stroke="#E9E9E9"/>
<path fill-rule="evenodd" clip-rule="evenodd" d="M20.25 18.375C20.25 16.9943 21.3693 15.875 22.75 15.875H25.25C26.6307 15.875 27.75 16.9943 27.75 18.375V18.5458C28.5271 18.6169 29.2978 18.71 30.0617 18.8243C31.2734 19.0056 32.125 20.0597 32.125 21.2547V23.7824C32.125 24.7917 31.5136 25.7427 30.5114 26.0759C28.4638 26.7567 26.2743 27.125 24 27.125C21.7257 27.125 19.5362 26.7567 17.4886 26.0759C16.4864 25.7427 15.875 24.7917 15.875 23.7824V21.2547C15.875 20.0597 16.7266 19.0056 17.9383 18.8243C18.7022 18.71 19.4729 18.6169 20.25 18.5458V18.375ZM26.5 18.375V18.4507C25.673 18.4005 24.8395 18.375 24 18.375C23.1605 18.375 22.327 18.4005 21.5 18.4507V18.375C21.5 17.6846 22.0596 17.125 22.75 17.125H25.25C25.9404 17.125 26.5 17.6846 26.5 18.375ZM24 25.25C24.3452 25.25 24.625 24.9702 24.625 24.625C24.625 24.2798 24.3452 24 24 24C23.6548 24 23.375 24.2798 23.375 24.625C23.375 24.9702 23.6548 25.25 24 25.25Z" fill="white"/>
<path d="M16.5 29.3333V27.0033C16.6859 27.1052 16.8841 27.1922 17.0942 27.262C19.2674 27.9846 21.59 28.375 24 28.375C26.41 28.375 28.7326 27.9846 30.9058 27.2621C31.1159 27.1922 31.3141 27.1052 31.5 27.0033V29.3333C31.5 30.5432 30.6273 31.6062 29.3974 31.7695C27.6313 32.004 25.8296 32.125 24 32.125C22.1704 32.125 20.3687 32.004 18.6026 31.7695C17.3727 31.6062 16.5 30.5432 16.5 29.3333Z" fill="white"/>
</svg>
