<svg width="34" height="34" viewBox="0 0 34 34" fill="none" xmlns="http://www.w3.org/2000/svg">
<path fill-rule="evenodd" clip-rule="evenodd" d="M3.14526 16.7752C3.14526 9.2476 9.2476 3.14526 16.7752 3.14526C24.3028 3.14526 30.4052 9.2476 30.4052 16.7752C30.4052 24.3028 24.3028 30.4052 16.7752 30.4052C9.2476 30.4052 3.14526 24.3028 3.14526 16.7752ZM21.8222 14.2392C22.1588 13.7681 22.0496 13.1132 21.5785 12.7767C21.1073 12.4401 20.4525 12.5493 20.1159 13.0204L15.593 19.3525L13.3228 17.0823C12.9133 16.6729 12.2495 16.6729 11.84 17.0823C11.4306 17.4918 11.4306 18.1556 11.84 18.5651L14.9854 21.7104C15.2033 21.9284 15.5061 22.0394 15.8132 22.0139C16.1204 21.9885 16.4008 21.8292 16.5799 21.5785L21.8222 14.2392Z" fill="#DC362E"/>
</svg>
