<svg width="65" height="64" viewBox="0 0 65 64" fill="none" xmlns="http://www.w3.org/2000/svg">
<rect x="0.5" width="64" height="64" rx="16" fill="#FBEBEA"/>
<path fill-rule="evenodd" clip-rule="evenodd" d="M28.5871 21.7973C29.0552 21.7973 29.4666 22.1077 29.5952 22.5578L30.732 26.5366C31.2296 28.2781 32.5909 29.6394 34.3325 30.137L38.3113 31.2738C38.7614 31.4024 39.0717 31.8138 39.0717 32.2819C39.0717 32.75 38.7614 33.1614 38.3113 33.29L34.3325 34.4269C32.5909 34.9244 31.2296 36.2857 30.732 38.0273L29.5952 42.0061C29.4666 42.4562 29.0552 42.7665 28.5871 42.7665C28.119 42.7665 27.7076 42.4562 27.579 42.0061L26.4422 38.0273C25.9446 36.2857 24.5833 34.9244 22.8418 34.4269L18.863 33.29C18.4129 33.1614 18.1025 32.75 18.1025 32.2819C18.1025 31.8138 18.4129 31.4024 18.863 31.2738L22.8418 30.137C24.5833 29.6394 25.9446 28.2781 26.4422 26.5366L27.579 22.5578C27.7076 22.1077 28.119 21.7973 28.5871 21.7973Z" fill="#DC362E"/>
<path fill-rule="evenodd" clip-rule="evenodd" d="M41.1686 17.6035C41.6497 17.6035 42.0691 17.9309 42.1858 18.3977L42.5477 19.8452C42.8763 21.16 43.9029 22.1865 45.2177 22.5152L46.6652 22.8771C47.1319 22.9938 47.4594 23.4132 47.4594 23.8943C47.4594 24.3754 47.1319 24.7947 46.6652 24.9114L45.2177 25.2733C43.9029 25.602 42.8763 26.6286 42.5477 27.9433L42.1858 29.3908C42.0691 29.8576 41.6497 30.185 41.1686 30.185C40.6875 30.185 40.2682 29.8576 40.1515 29.3908L39.7896 27.9433C39.4609 26.6286 38.4343 25.602 37.1196 25.2733L35.672 24.9114C35.2053 24.7947 34.8779 24.3754 34.8779 23.8943C34.8779 23.4132 35.2053 22.9938 35.672 22.8771L37.1196 22.5152C38.4343 22.1865 39.4609 21.16 39.7896 19.8452L40.1515 18.3977C40.2682 17.9309 40.6875 17.6035 41.1686 17.6035Z" fill="#DC362E"/>
<path fill-rule="evenodd" clip-rule="evenodd" d="M39.0717 36.4758C39.523 36.4758 39.9236 36.7645 40.0664 37.1927L40.6175 38.8461C40.8262 39.4722 41.3175 39.9636 41.9437 40.1723L43.5971 40.7234C44.0252 40.8661 44.314 41.2668 44.314 41.7181C44.314 42.1693 44.0252 42.57 43.5971 42.7127L41.9437 43.2638C41.3175 43.4726 40.8262 43.9639 40.6175 44.59L40.0664 46.2434C39.9236 46.6716 39.523 46.9603 39.0717 46.9603C38.6204 46.9603 38.2198 46.6716 38.077 46.2434L37.5259 44.59C37.3172 43.9639 36.8259 43.4726 36.1997 43.2638L34.5463 42.7127C34.1182 42.57 33.8294 42.1693 33.8294 41.7181C33.8294 41.2668 34.1182 40.8661 34.5463 40.7234L36.1997 40.1723C36.8259 39.9636 37.3172 39.4722 37.5259 38.8461L38.077 37.1927C38.2198 36.7645 38.6204 36.4758 39.0717 36.4758Z" fill="#DC362E"/>
</svg>
