<svg width="48" height="48" viewBox="0 0 48 48" fill="none" xmlns="http://www.w3.org/2000/svg">
<rect x="0.5" y="0.5" width="47" height="47" rx="11.5" fill="#DC362E"/>
<rect x="0.5" y="0.5" width="47" height="47" rx="11.5" stroke="#E9E9E9"/>
<path fill-rule="evenodd" clip-rule="evenodd" d="M17.75 15.875C17.4048 15.875 17.125 16.1548 17.125 16.5C17.125 16.8452 17.4048 17.125 17.75 17.125V30.875H17.125C16.7798 30.875 16.5 31.1548 16.5 31.5C16.5 31.8452 16.7798 32.125 17.125 32.125H30.875C31.2202 32.125 31.5 31.8452 31.5 31.5C31.5 31.1548 31.2202 30.875 30.875 30.875H30.25V17.125C30.5952 17.125 30.875 16.8452 30.875 16.5C30.875 16.1548 30.5952 15.875 30.25 15.875H17.75ZM21.5 19C21.1548 19 20.875 19.2798 20.875 19.625C20.875 19.9702 21.1548 20.25 21.5 20.25H22.75C23.0952 20.25 23.375 19.9702 23.375 19.625C23.375 19.2798 23.0952 19 22.75 19H21.5ZM20.875 22.125C20.875 21.7798 21.1548 21.5 21.5 21.5H22.75C23.0952 21.5 23.375 21.7798 23.375 22.125C23.375 22.4702 23.0952 22.75 22.75 22.75H21.5C21.1548 22.75 20.875 22.4702 20.875 22.125ZM21.5 24C21.1548 24 20.875 24.2798 20.875 24.625C20.875 24.9702 21.1548 25.25 21.5 25.25H22.75C23.0952 25.25 23.375 24.9702 23.375 24.625C23.375 24.2798 23.0952 24 22.75 24H21.5ZM24.625 19.625C24.625 19.2798 24.9048 19 25.25 19H26.5C26.8452 19 27.125 19.2798 27.125 19.625C27.125 19.9702 26.8452 20.25 26.5 20.25H25.25C24.9048 20.25 24.625 19.9702 24.625 19.625ZM25.25 21.5C24.9048 21.5 24.625 21.7798 24.625 22.125C24.625 22.4702 24.9048 22.75 25.25 22.75H26.5C26.8452 22.75 27.125 22.4702 27.125 22.125C27.125 21.7798 26.8452 21.5 26.5 21.5H25.25ZM24.625 24.625C24.625 24.2798 24.9048 24 25.25 24H26.5C26.8452 24 27.125 24.2798 27.125 24.625C27.125 24.9702 26.8452 25.25 26.5 25.25H25.25C24.9048 25.25 24.625 24.9702 24.625 24.625ZM21.5 30.25V28.375C21.5 28.0298 21.7798 27.75 22.125 27.75H25.875C26.2202 27.75 26.5 28.0298 26.5 28.375V30.25C26.5 30.5952 26.2202 30.875 25.875 30.875H22.125C21.7798 30.875 21.5 30.5952 21.5 30.25Z" fill="white"/>
</svg>
