<svg width="65" height="64" viewBox="0 0 65 64" fill="none" xmlns="http://www.w3.org/2000/svg">
<rect x="0.5" width="64" height="64" rx="16" fill="#FBEBEA"/>
<path fill-rule="evenodd" clip-rule="evenodd" d="M39.0721 21.7669V22.0839C40.4068 22.2061 41.7304 22.3667 43.0418 22.5648C43.5273 22.6381 44.0112 22.7166 44.4934 22.8001C45.0639 22.8989 45.4463 23.4416 45.3475 24.0121C45.2487 24.5827 44.706 24.9651 44.1355 24.8662C44.0382 24.8494 43.9408 24.8327 43.8433 24.8163L42.4378 43.0882C42.2697 45.2731 40.4478 46.9603 38.2563 46.9603H27.3064C25.115 46.9603 23.293 45.2731 23.1249 43.0882L21.7194 24.8163C21.622 24.8327 21.5246 24.8494 21.4273 24.8662C20.8567 24.9651 20.3141 24.5827 20.2153 24.0121C20.1164 23.4416 20.4988 22.8989 21.0694 22.8001C21.5515 22.7166 22.0354 22.6381 22.521 22.5648C23.8324 22.3667 25.156 22.2061 26.4906 22.0839V21.7669C26.4906 19.5798 28.1857 17.7128 30.4264 17.6411C31.2084 17.6161 31.9934 17.6035 32.7814 17.6035C33.5693 17.6035 34.3544 17.6161 35.1363 17.6411C37.3771 17.7128 39.0721 19.5798 39.0721 21.7669ZM30.4935 19.737C31.2531 19.7127 32.0158 19.7004 32.7814 19.7004C33.547 19.7004 34.3097 19.7127 35.0693 19.737C36.1242 19.7707 36.9752 20.6565 36.9752 21.7669V21.9243C35.5879 21.8401 34.1896 21.7973 32.7814 21.7973C31.3732 21.7973 29.9748 21.8401 28.5875 21.9243V21.7669C28.5875 20.6565 29.4386 19.7707 30.4935 19.737ZM29.9975 28.0478C29.9753 27.4692 29.4882 27.0182 28.9095 27.0404C28.3309 27.0627 27.8799 27.5498 27.9021 28.1284L28.386 40.7099C28.4083 41.2885 28.8954 41.7395 29.474 41.7173C30.0526 41.695 30.5037 41.2079 30.4814 40.6293L29.9975 28.0478ZM37.6593 28.1284C37.6816 27.5498 37.2306 27.0627 36.6519 27.0404C36.0733 27.0182 35.5862 27.4692 35.564 28.0478L35.08 40.6293C35.0578 41.2079 35.5088 41.695 36.0874 41.7173C36.6661 41.7395 37.1532 41.2885 37.1754 40.7099L37.6593 28.1284Z" fill="#DC362E"/>
</svg>
