<svg width="34" height="34" viewBox="0 0 34 34" fill="none" xmlns="http://www.w3.org/2000/svg">
<path fill-rule="evenodd" clip-rule="evenodd" d="M10.4872 8.38767H15.7236L15.7269 8.38767H20.4517C23.0543 8.39142 25.1629 10.5023 25.1629 13.1057V26.2115C27.479 26.2115 29.3567 24.3338 29.3567 22.0176V8.53895C29.3567 6.43449 27.7843 4.60847 25.6325 4.42987C25.3197 4.40391 25.0062 4.38006 24.6922 4.35833C23.9934 3.01464 22.5885 2.09692 20.9692 2.09692H18.8723C17.253 2.09692 15.8481 3.01463 15.1492 4.35831C14.8351 4.38004 14.5216 4.4039 14.2086 4.42987C12.1085 4.60418 10.5604 6.34765 10.4872 8.38767ZM18.8723 4.19384C17.7142 4.19384 16.7753 5.13266 16.7753 6.29076H23.0661C23.0661 5.13266 22.1273 4.19384 20.9692 4.19384H18.8723Z" fill="#DC362E"/>
<path fill-rule="evenodd" clip-rule="evenodd" d="M4.19385 13.1057C4.19385 11.6581 5.36737 10.4846 6.81499 10.4846H20.4449C21.8926 10.4846 23.0661 11.6581 23.0661 13.1057V28.8326C23.0661 30.2802 21.8926 31.4538 20.4449 31.4538H6.81499C5.36737 31.4538 4.19385 30.2802 4.19385 28.8326V13.1057ZM8.38768 16.7753C8.38768 16.1963 8.85709 15.7269 9.43614 15.7269H9.44662C10.0257 15.7269 10.4951 16.1963 10.4951 16.7753V16.7858C10.4951 17.3649 10.0257 17.8343 9.44662 17.8343H9.43614C8.85709 17.8343 8.38768 17.3649 8.38768 16.7858V16.7753ZM11.5331 16.7753C11.5331 16.1963 12.0025 15.7269 12.5815 15.7269H17.8238C18.4029 15.7269 18.8723 16.1963 18.8723 16.7753C18.8723 17.3544 18.4029 17.8238 17.8238 17.8238H12.5815C12.0025 17.8238 11.5331 17.3544 11.5331 16.7753ZM8.38768 20.9692C8.38768 20.3901 8.85709 19.9207 9.43614 19.9207H9.44662C10.0257 19.9207 10.4951 20.3901 10.4951 20.9692V20.9797C10.4951 21.5587 10.0257 22.0281 9.44662 22.0281H9.43614C8.85709 22.0281 8.38768 21.5587 8.38768 20.9797V20.9692ZM11.5331 20.9692C11.5331 20.3901 12.0025 19.9207 12.5815 19.9207H17.8238C18.4029 19.9207 18.8723 20.3901 18.8723 20.9692C18.8723 21.5482 18.4029 22.0176 17.8238 22.0176H12.5815C12.0025 22.0176 11.5331 21.5482 11.5331 20.9692ZM8.38768 25.163C8.38768 24.584 8.85709 24.1145 9.43614 24.1145H9.44662C10.0257 24.1145 10.4951 24.584 10.4951 25.163V25.1735C10.4951 25.7525 10.0257 26.2219 9.44662 26.2219H9.43614C8.85709 26.2219 8.38768 25.7525 8.38768 25.1735V25.163ZM11.5331 25.163C11.5331 24.584 12.0025 24.1145 12.5815 24.1145H17.8238C18.4029 24.1145 18.8723 24.584 18.8723 25.163C18.8723 25.7421 18.4029 26.2115 17.8238 26.2115H12.5815C12.0025 26.2115 11.5331 25.7421 11.5331 25.163Z" fill="#DC362E"/>
</svg>
