<svg width="65" height="64" viewBox="0 0 65 64" fill="none" xmlns="http://www.w3.org/2000/svg">
<rect x="0.5" width="64" height="64" rx="16" fill="#FBEBEA"/>
<path fill-rule="evenodd" clip-rule="evenodd" d="M32.7803 18.6519C33.3594 18.6519 33.8288 19.1213 33.8288 19.7003V36.0414L38.3297 31.5404C38.7392 31.131 39.403 31.131 39.8125 31.5404C40.2219 31.9499 40.2219 32.6137 39.8125 33.0232L33.5217 39.3139C33.1123 39.7234 32.4484 39.7234 32.039 39.3139L25.7482 33.0232C25.3388 32.6137 25.3388 31.9499 25.7482 31.5404C26.1577 31.131 26.8215 31.131 27.231 31.5404L31.7319 36.0414V19.7003C31.7319 19.1213 32.2013 18.6519 32.7803 18.6519ZM20.1988 37.5241C20.7779 37.5241 21.2473 37.9935 21.2473 38.5726V41.7179C21.2473 42.876 22.1861 43.8149 23.3442 43.8149H42.2165C43.3746 43.8149 44.3134 42.876 44.3134 41.7179V38.5726C44.3134 37.9935 44.7828 37.5241 45.3618 37.5241C45.9409 37.5241 46.4103 37.9935 46.4103 38.5726V41.7179C46.4103 44.0341 44.5327 45.9118 42.2165 45.9118H23.3442C21.028 45.9118 19.1504 44.0341 19.1504 41.7179V38.5726C19.1504 37.9935 19.6198 37.5241 20.1988 37.5241Z" fill="#DC362E"/>
</svg>
