<svg width="47" height="47" viewBox="0 0 47 47" fill="none" xmlns="http://www.w3.org/2000/svg">
<circle cx="23.2437" cy="23.2437" r="22.7492" fill="white" stroke="#E9E9E9" stroke-width="0.989094"/>
<path d="M28.1053 15.7308L29.7928 14.0433C30.5251 13.3111 31.7122 13.3111 32.4445 14.0433C33.1767 14.7755 33.1767 15.9627 32.4445 16.695L21.8258 27.3136C21.2972 27.8423 20.6451 28.2309 19.9285 28.4444L17.2437 29.2441L18.0434 26.5593C18.2569 25.8427 18.6455 25.1906 19.1742 24.662L28.1053 15.7308ZM28.1053 15.7308L30.7437 18.3691M29.2437 25.2441V29.9941C29.2437 31.2368 28.2363 32.2441 26.9937 32.2441H16.4937C15.251 32.2441 14.2437 31.2368 14.2437 29.9941V19.4941C14.2437 18.2515 15.251 17.2441 16.4937 17.2441H21.2437" stroke="#232323" stroke-width="1.5" stroke-linecap="round" stroke-linejoin="round"/>
</svg>
