<svg width="48" height="48" viewBox="0 0 48 48" fill="none" xmlns="http://www.w3.org/2000/svg">
<rect x="0.5" y="0.5" width="47" height="47" rx="11.5" fill="#DC362E"/>
<rect x="0.5" y="0.5" width="47" height="47" rx="11.5" stroke="#E9E9E9"/>
<path d="M23.7496 16.3377C23.9091 16.268 24.0905 16.268 24.25 16.3377C27.3491 17.6917 30.2862 19.3469 33.0244 21.2662C33.2225 21.4051 33.3227 21.6459 33.2815 21.8844C33.2403 22.1229 33.0652 22.3161 32.8319 22.3805C32.2612 22.538 31.6953 22.7077 31.1346 22.8886C28.8587 23.6226 26.6679 24.5461 24.5807 25.6406L24.578 25.642C24.4834 25.6916 24.3889 25.7416 24.2947 25.792C24.1107 25.8903 23.8897 25.8903 23.7057 25.792C23.6106 25.7412 23.5152 25.6907 23.4197 25.6406C22.3876 25.0994 21.3302 24.6 20.2498 24.1446V23.9582C20.2498 23.8488 20.3059 23.7516 20.3929 23.699C21.6471 22.9391 22.9409 22.238 24.2704 21.5994C24.5815 21.45 24.7126 21.0766 24.5631 20.7654C24.4137 20.4543 24.0403 20.3232 23.7291 20.4726C22.3631 21.1288 21.0338 21.8492 19.7452 22.6299C19.3673 22.8588 19.1134 23.2334 19.0298 23.6531C18.3174 23.379 17.5956 23.1238 16.865 22.8882C16.3043 22.7073 15.7385 22.538 15.1677 22.3805C14.9344 22.3161 14.7593 22.1228 14.7181 21.8844C14.6769 21.6459 14.7771 21.4051 14.9753 21.2662C17.7135 19.3469 20.6506 17.6917 23.7496 16.3377Z" fill="white"/>
<path d="M24.8838 26.8945C26.9162 25.8085 29.0515 24.8905 31.2713 24.1588C31.3831 25.3378 31.4546 26.5285 31.4841 27.7295C31.4905 27.9872 31.338 28.2223 31.1001 28.3217C28.7242 29.3136 26.4642 30.5283 24.3464 31.9397C24.1365 32.0795 23.8631 32.0795 23.6532 31.9397C21.5353 30.5283 19.2754 29.3136 16.8994 28.3217C16.6616 28.2223 16.5091 27.9872 16.5154 27.7295C16.545 26.5284 16.6164 25.3376 16.7283 24.1585C17.4958 24.4115 18.2532 24.6867 18.9998 24.9835V26.0422C18.6261 26.2583 18.3748 26.6623 18.3748 27.1249C18.3748 27.5377 18.5748 27.9037 18.8833 28.1314C18.8087 28.4486 18.6983 28.7589 18.5521 29.0562C18.9293 29.2342 19.3033 29.418 19.674 29.6074C19.8851 29.178 20.0382 28.7273 20.1332 28.2672C20.5702 28.0724 20.8748 27.6342 20.8748 27.1249C20.8748 26.6623 20.6234 26.2583 20.2498 26.0422V25.5049C21.2259 25.9314 22.1821 26.3952 23.1166 26.8945C23.6687 27.1895 24.3317 27.1895 24.8838 26.8945Z" fill="white"/>
<path d="M17.7183 30.2185C18.0676 29.8692 18.3456 29.4758 18.5521 29.0562C18.9293 29.2342 19.3033 29.418 19.674 29.6074C19.4085 30.1473 19.0511 30.6534 18.6022 31.1024C18.3581 31.3465 17.9624 31.3465 17.7183 31.1024C17.4742 30.8583 17.4742 30.4626 17.7183 30.2185Z" fill="white"/>
</svg>
