<svg width="48" height="48" viewBox="0 0 48 48" fill="none" xmlns="http://www.w3.org/2000/svg">
<rect x="0.5" y="0.5" width="47" height="47" rx="11.5" fill="#DC362E"/>
<rect x="0.5" y="0.5" width="47" height="47" rx="11.5" stroke="#E9E9E9"/>
<path fill-rule="evenodd" clip-rule="evenodd" d="M15.875 15.875C15.5298 15.875 15.25 16.1548 15.25 16.5C15.25 16.8452 15.5298 17.125 15.875 17.125H16.5V25.875C16.5 27.2557 17.6193 28.375 19 28.375H20.0079L19.0321 31.3024C18.9229 31.6298 19.0999 31.9838 19.4274 32.0929C19.7548 32.2021 20.1088 32.0251 20.2179 31.6976L20.4921 30.875H27.5079L27.7821 31.6976C27.8912 32.0251 28.2452 32.2021 28.5726 32.0929C28.9001 31.9838 29.0771 31.6298 28.9679 31.3024L27.9921 28.375H29C30.3807 28.375 31.5 27.2557 31.5 25.875V17.125H32.125C32.4702 17.125 32.75 16.8452 32.75 16.5C32.75 16.1548 32.4702 15.875 32.125 15.875H15.875ZM21.3255 28.375H26.6745L27.0912 29.625H20.9088L21.3255 28.375ZM28.063 20.8789C28.3617 20.7061 28.4638 20.3237 28.291 20.0249C28.1182 19.7261 27.7358 19.624 27.437 19.7969C26.2981 20.4557 25.2931 21.3198 24.4723 22.3385L23.1919 21.0581C22.9479 20.814 22.5521 20.814 22.3081 21.0581L19.8081 23.5581C19.564 23.8022 19.564 24.1979 19.8081 24.442C20.0521 24.6861 20.4479 24.6861 20.6919 24.442L22.75 22.384L24.0977 23.7317C24.2285 23.8625 24.4106 23.9286 24.5948 23.9123C24.7791 23.896 24.9467 23.7988 25.0524 23.647C25.8391 22.5181 26.8678 21.5702 28.063 20.8789Z" fill="white"/>
</svg>
