<svg width="47" height="47" viewBox="0 0 47 47" fill="none" xmlns="http://www.w3.org/2000/svg">
<circle cx="23.2437" cy="23.2437" r="22.7492" fill="white" stroke="#E9E9E9" stroke-width="0.989094"/>
<path d="M30.7441 25.4937V22.8687C30.7441 21.0047 29.2331 19.4937 27.3691 19.4937H25.8691C25.2478 19.4937 24.7441 18.99 24.7441 18.3687V16.8687C24.7441 15.0047 23.2331 13.4937 21.3691 13.4937H19.4941M26.2441 25.4937L23.2441 22.4937M23.2441 22.4937L20.2441 25.4937M23.2441 22.4937L23.2441 28.4937M21.7441 13.4937H16.8691C16.2478 13.4937 15.7441 13.9973 15.7441 14.6187V31.8687C15.7441 32.49 16.2478 32.9937 16.8691 32.9937H29.6191C30.2405 32.9937 30.7441 32.49 30.7441 31.8687V22.4937C30.7441 17.5231 26.7147 13.4937 21.7441 13.4937Z" stroke="#232323" stroke-width="1.5" stroke-linecap="round" stroke-linejoin="round"/>
</svg>
