<svg width="34" height="34" viewBox="0 0 34 34" fill="none" xmlns="http://www.w3.org/2000/svg">
<path fill-rule="evenodd" clip-rule="evenodd" d="M7.86333 2.09692C6.41571 2.09692 5.24219 3.27045 5.24219 4.71807V28.8326C5.24219 30.2802 6.41571 31.4538 7.86333 31.4538H25.6871C27.1347 31.4538 28.3083 30.2802 28.3083 28.8326V17.8238C28.3083 14.9286 25.9612 12.5815 23.066 12.5815H20.4448C18.9972 12.5815 17.8237 11.408 17.8237 9.96036V7.33921C17.8237 4.44398 15.4766 2.09692 12.5814 2.09692H7.86333ZM10.4845 20.9692C10.4845 20.3901 10.9539 19.9207 11.5329 19.9207H22.0175C22.5966 19.9207 23.066 20.3901 23.066 20.9692C23.066 21.5482 22.5966 22.0176 22.0175 22.0176H11.5329C10.9539 22.0176 10.4845 21.5482 10.4845 20.9692ZM11.5329 24.1145C10.9539 24.1145 10.4845 24.584 10.4845 25.163C10.4845 25.7421 10.9539 26.2115 11.5329 26.2115H16.7752C17.3543 26.2115 17.8237 25.7421 17.8237 25.163C17.8237 24.584 17.3543 24.1145 16.7752 24.1145H11.5329Z" fill="#DC362E"/>
<path d="M18.1329 2.53854C19.2467 3.82545 19.9206 5.50364 19.9206 7.33921V9.96036C19.9206 10.2499 20.1553 10.4846 20.4448 10.4846H23.066C24.9016 10.4846 26.5797 11.1585 27.8666 12.2723C26.6255 7.52077 22.8844 3.77973 18.1329 2.53854Z" fill="#DC362E"/>
</svg>
