<svg width="48" height="48" viewBox="0 0 48 48" fill="none" xmlns="http://www.w3.org/2000/svg">
<rect x="0.5" y="0.5" width="47" height="47" rx="11.5" fill="#DC362E"/>
<rect x="0.5" y="0.5" width="47" height="47" rx="11.5" stroke="#E9E9E9"/>
<path d="M22.75 19L30.875 19M22.75 19C22.75 19.6904 22.1904 20.25 21.5 20.25C20.8096 20.25 20.25 19.6904 20.25 19M22.75 19C22.75 18.3096 22.1904 17.75 21.5 17.75C20.8096 17.75 20.25 18.3096 20.25 19M17.125 19H20.25M22.75 29H30.875M22.75 29C22.75 29.6904 22.1904 30.25 21.5 30.25C20.8096 30.25 20.25 29.6904 20.25 29M22.75 29C22.75 28.3096 22.1904 27.75 21.5 27.75C20.8096 27.75 20.25 28.3096 20.25 29M17.125 29L20.25 29M27.75 24L30.875 24M27.75 24C27.75 24.6904 27.1904 25.25 26.5 25.25C25.8096 25.25 25.25 24.6904 25.25 24M27.75 24C27.75 23.3096 27.1904 22.75 26.5 22.75C25.8096 22.75 25.25 23.3096 25.25 24M17.125 24H25.25" stroke="white" stroke-width="1.5" stroke-linecap="round" stroke-linejoin="round"/>
</svg>
