<svg width="48" height="48" viewBox="0 0 48 48" fill="none" xmlns="http://www.w3.org/2000/svg">
<rect x="0.5" y="0.5" width="47" height="47" rx="11.5" fill="#DC362E"/>
<rect x="0.5" y="0.5" width="47" height="47" rx="11.5" stroke="#E9E9E9"/>
<path d="M23.375 16.5V19.872C22.3957 18.9392 20.8455 18.9537 19.8839 19.9153C18.9325 20.8667 18.9082 22.3942 19.8111 23.375H15.25V18.375C15.25 17.3395 16.0895 16.5 17.125 16.5H23.375Z" fill="white"/>
<path d="M24.625 16.5V19.8425C25.6058 18.9396 27.1333 18.9639 28.0847 19.9153C29.0361 20.8667 29.0603 22.3942 28.1574 23.375H32.75V18.375C32.75 17.3395 31.9105 16.5 30.875 16.5H24.625Z" fill="white"/>
<path d="M32.75 24.625H25.264C25.4219 26.377 26.8944 27.75 28.6875 27.75C29.0327 27.75 29.3125 28.0298 29.3125 28.375C29.3125 28.7202 29.0327 29 28.6875 29C26.951 29 25.435 28.0557 24.625 26.6526V31.5H30.875C31.9105 31.5 32.75 30.6605 32.75 29.625V24.625Z" fill="white"/>
<path d="M23.375 31.5V26.6526C22.565 28.0557 21.049 29 19.3125 29C18.9673 29 18.6875 28.7202 18.6875 28.375C18.6875 28.0298 18.9673 27.75 19.3125 27.75C21.1056 27.75 22.5781 26.377 22.736 24.625H15.25V29.625C15.25 30.6605 16.0895 31.5 17.125 31.5H23.375Z" fill="white"/>
<path d="M23.2379 22.628C23.2629 22.8761 23.2695 23.1071 23.2679 23.2994C23.0757 23.301 22.8447 23.2943 22.5965 23.2693C21.9024 23.1995 21.1992 22.9984 20.7678 22.567C20.2796 22.0788 20.2796 21.2874 20.7678 20.7992C21.2559 20.3111 22.0474 20.3111 22.5355 20.7992C22.9669 21.2306 23.168 21.9339 23.2379 22.628Z" fill="white"/>
<path d="M24.7307 22.6279C24.7057 22.8761 24.699 23.1071 24.7006 23.2993C24.8928 23.3009 25.1239 23.2943 25.372 23.2693C26.0661 23.1994 26.7694 22.9984 27.2008 22.567C27.6889 22.0788 27.6889 21.2874 27.2008 20.7992C26.7126 20.311 25.9212 20.311 25.433 20.7992C25.0016 21.2306 24.8005 21.9339 24.7307 22.6279Z" fill="white"/>
</svg>
