<svg width="48" height="48" viewBox="0 0 48 48" fill="none" xmlns="http://www.w3.org/2000/svg">
<rect x="0.5" y="0.5" width="47" height="47" rx="11.5" fill="#DC362E"/>
<rect x="0.5" y="0.5" width="47" height="47" rx="11.5" stroke="#E9E9E9"/>
<path d="M18.6875 17.125C17.4794 17.125 16.5 18.1044 16.5 19.3125C16.5 20.5206 17.4794 21.5 18.6875 21.5H29.3125C30.5206 21.5 31.5 20.5206 31.5 19.3125C31.5 18.1044 30.5206 17.125 29.3125 17.125H18.6875Z" fill="white"/>
<path d="M17.125 23.375C16.7798 23.375 16.5 23.6548 16.5 24C16.5 24.3452 16.7798 24.625 17.125 24.625H30.875C31.2202 24.625 31.5 24.3452 31.5 24C31.5 23.6548 31.2202 23.375 30.875 23.375H17.125Z" fill="white"/>
<path d="M16.5 27.125C16.5 26.7798 16.7798 26.5 17.125 26.5H30.875C31.2202 26.5 31.5 26.7798 31.5 27.125C31.5 27.4702 31.2202 27.75 30.875 27.75H17.125C16.7798 27.75 16.5 27.4702 16.5 27.125Z" fill="white"/>
<path d="M17.125 29.625C16.7798 29.625 16.5 29.9048 16.5 30.25C16.5 30.5952 16.7798 30.875 17.125 30.875H30.875C31.2202 30.875 31.5 30.5952 31.5 30.25C31.5 29.9048 31.2202 29.625 30.875 29.625H17.125Z" fill="white"/>
</svg>
