<svg width="48" height="48" viewBox="0 0 48 48" fill="none" xmlns="http://www.w3.org/2000/svg">
<rect x="0.5" y="0.5" width="47" height="47" rx="11.5" fill="#DC362E"/>
<rect x="0.5" y="0.5" width="47" height="47" rx="11.5" stroke="#E9E9E9"/>
<path fill-rule="evenodd" clip-rule="evenodd" d="M21.5001 15.875C21.8453 15.875 22.1251 16.1548 22.1251 16.5V17.7547C22.8621 17.7658 23.5944 17.7966 24.3215 17.8465C25.0793 17.8985 25.8315 17.9713 26.5775 18.0643C26.92 18.107 27.163 18.4193 27.1203 18.7618C27.0776 19.1043 26.7653 19.3474 26.4228 19.3047C25.8732 19.2361 25.3201 19.1789 24.7636 19.1333C24.2713 21.0581 23.4218 22.8395 22.2901 24.4028C22.5541 24.7222 22.8317 25.03 23.122 25.3254C23.3639 25.5716 23.3605 25.9673 23.1143 26.2092C22.8681 26.4512 22.4724 26.4477 22.2304 26.2015C21.978 25.9447 21.7344 25.6792 21.5001 25.4055C20.1908 26.935 18.5913 28.2084 16.787 29.1405C16.4803 29.2989 16.1033 29.1788 15.9448 28.8721C15.7864 28.5654 15.9066 28.1884 16.2133 28.0299C17.9481 27.1337 19.4769 25.8947 20.7102 24.4028C19.9884 23.4058 19.3814 22.32 18.9086 21.1648C18.7779 20.8453 18.9309 20.4804 19.2503 20.3496C19.5698 20.2189 19.9348 20.3719 20.0655 20.6913C20.4508 21.6327 20.9331 22.5242 21.5001 23.3535C22.3875 22.0556 23.0676 20.605 23.4928 19.0495C22.8328 19.0166 22.1684 19 21.5001 19C19.8327 19 18.1898 19.1036 16.5775 19.3047C16.2349 19.3474 15.9226 19.1043 15.8799 18.7618C15.8372 18.4193 16.0803 18.107 16.4228 18.0643C17.8844 17.882 19.37 17.7774 20.8751 17.7547V16.5C20.8751 16.1548 21.155 15.875 21.5001 15.875ZM27.1251 21.5C27.368 21.5 27.5888 21.6407 27.6915 21.8607L32.0665 31.2357C32.2125 31.5485 32.0772 31.9204 31.7644 32.0664C31.4516 32.2123 31.0797 32.0771 30.9338 31.7643L29.9354 29.625H24.3148L23.3165 31.7643C23.1705 32.0771 22.7986 32.2123 22.4858 32.0664C22.173 31.9204 22.0378 31.5485 22.1838 31.2357L26.5588 21.8607C26.6615 21.6407 26.8823 21.5 27.1251 21.5ZM24.8982 28.375H29.3521L27.1251 23.6029L24.8982 28.375Z" fill="white"/>
</svg>
