<svg width="48" height="48" viewBox="0 0 48 48" fill="none" xmlns="http://www.w3.org/2000/svg">
<rect x="0.5" y="0.5" width="47" height="47" rx="11.5" fill="#DC362E"/>
<rect x="0.5" y="0.5" width="47" height="47" rx="11.5" stroke="#E9E9E9"/>
<path d="M19 16.5C17.6193 16.5 16.5 17.6193 16.5 19V20.25C16.5 20.5952 16.7798 20.875 17.125 20.875C17.4702 20.875 17.75 20.5952 17.75 20.25V19C17.75 18.3096 18.3096 17.75 19 17.75H20.25C20.5952 17.75 20.875 17.4702 20.875 17.125C20.875 16.7798 20.5952 16.5 20.25 16.5H19Z" fill="white"/>
<path d="M27.75 16.5C27.4048 16.5 27.125 16.7798 27.125 17.125C27.125 17.4702 27.4048 17.75 27.75 17.75H29C29.6904 17.75 30.25 18.3096 30.25 19V20.25C30.25 20.5952 30.5298 20.875 30.875 20.875C31.2202 20.875 31.5 20.5952 31.5 20.25V19C31.5 17.6193 30.3807 16.5 29 16.5H27.75Z" fill="white"/>
<path d="M24 20.875C22.2741 20.875 20.875 22.2741 20.875 24C20.875 25.7259 22.2741 27.125 24 27.125C25.7259 27.125 27.125 25.7259 27.125 24C27.125 22.2741 25.7259 20.875 24 20.875Z" fill="white"/>
<path d="M17.75 27.75C17.75 27.4048 17.4702 27.125 17.125 27.125C16.7798 27.125 16.5 27.4048 16.5 27.75V29C16.5 30.3807 17.6193 31.5 19 31.5H20.25C20.5952 31.5 20.875 31.2202 20.875 30.875C20.875 30.5298 20.5952 30.25 20.25 30.25H19C18.3096 30.25 17.75 29.6904 17.75 29V27.75Z" fill="white"/>
<path d="M31.5 27.75C31.5 27.4048 31.2202 27.125 30.875 27.125C30.5298 27.125 30.25 27.4048 30.25 27.75V29C30.25 29.6904 29.6904 30.25 29 30.25H27.75C27.4048 30.25 27.125 30.5298 27.125 30.875C27.125 31.2202 27.4048 31.5 27.75 31.5H29C30.3807 31.5 31.5 30.3807 31.5 29V27.75Z" fill="white"/>
</svg>
