<svg width="48" height="48" viewBox="0 0 48 48" fill="none" xmlns="http://www.w3.org/2000/svg">
<rect x="0.5" y="0.5" width="47" height="47" rx="11.5" fill="#DC362E"/>
<rect x="0.5" y="0.5" width="47" height="47" rx="11.5" stroke="#E9E9E9"/>
<path d="M18.6875 15.25C17.8246 15.25 17.125 15.9496 17.125 16.8125V31.1875C17.125 32.0504 17.8246 32.75 18.6875 32.75H29.3125C30.1754 32.75 30.875 32.0504 30.875 31.1875V24.625C30.875 22.8991 29.4759 21.5 27.75 21.5H26.1875C25.3246 21.5 24.625 20.8004 24.625 19.9375V18.375C24.625 16.6491 23.2259 15.25 21.5 15.25H18.6875Z" fill="white"/>
<path d="M24.8093 15.5133C25.4733 16.2804 25.875 17.2808 25.875 18.375V19.9375C25.875 20.1101 26.0149 20.25 26.1875 20.25H27.75C28.8442 20.25 29.8446 20.6517 30.6117 21.3157C29.8719 18.4832 27.6418 16.2531 24.8093 15.5133Z" fill="white"/>
</svg>
