<svg width="48" height="48" viewBox="0 0 48 48" fill="none" xmlns="http://www.w3.org/2000/svg">
<rect x="0.5" y="0.5" width="47" height="47" rx="11.5" fill="#DC362E"/>
<rect x="0.5" y="0.5" width="47" height="47" rx="11.5" stroke="#E9E9E9"/>
<path fill-rule="evenodd" clip-rule="evenodd" d="M20.2491 19C20.2491 16.9289 21.928 15.25 23.9991 15.25C26.0701 15.25 27.7491 16.9289 27.7491 19C27.7491 21.0711 26.0701 22.75 23.9991 22.75C21.928 22.75 20.2491 21.0711 20.2491 19Z" fill="white"/>
<path fill-rule="evenodd" clip-rule="evenodd" d="M17.1251 30.7544C17.1895 27.013 20.2424 24 23.9991 24C27.7558 24 30.8087 27.0131 30.873 30.7547C30.8773 31.0028 30.7343 31.23 30.5088 31.3335C28.5263 32.2432 26.3212 32.75 23.9993 32.75C21.6773 32.75 19.4719 32.2431 17.4893 31.3332C17.2638 31.2297 17.1208 31.0026 17.1251 30.7544Z" fill="white"/>
</svg>
