<svg width="48" height="48" viewBox="0 0 48 48" fill="none" xmlns="http://www.w3.org/2000/svg">
<rect x="0.5" y="0.5" width="47" height="47" rx="11.5" fill="#DC362E"/>
<rect x="0.5" y="0.5" width="47" height="47" rx="11.5" stroke="#E9E9E9"/>
<path fill-rule="evenodd" clip-rule="evenodd" d="M30.25 31.5C31.6307 31.5 32.75 30.3807 32.75 29V21.5C32.75 20.1193 31.6307 19 30.25 19H25.7678C25.602 19 25.443 18.9342 25.3258 18.8169L23.5581 17.0492C23.2064 16.6975 22.7295 16.5 22.2322 16.5H17.75C16.3693 16.5 15.25 17.6193 15.25 19V29C15.25 30.3807 16.3693 31.5 17.75 31.5H30.25ZM21.5 24.625C21.1548 24.625 20.875 24.9048 20.875 25.25C20.875 25.5952 21.1548 25.875 21.5 25.875H26.5C26.8452 25.875 27.125 25.5952 27.125 25.25C27.125 24.9048 26.8452 24.625 26.5 24.625H21.5Z" fill="white"/>
</svg>
