<svg width="48" height="48" viewBox="0 0 48 48" fill="none" xmlns="http://www.w3.org/2000/svg">
<rect x="0.5" y="0.5" width="47" height="47" rx="11.5" fill="#DC362E"/>
<rect x="0.5" y="0.5" width="47" height="47" rx="11.5" stroke="#E9E9E9"/>
<path d="M22.7197 21.2886C22.909 21.1381 23.1339 21.0288 23.375 20.9604V23.2895C23.1293 23.2198 22.905 23.1087 22.7197 22.9614C22.3916 22.7008 22.2646 22.3941 22.2646 22.125C22.2646 21.8559 22.3916 21.5492 22.7197 21.2886Z" fill="white"/>
<path d="M24.625 27.0513V24.6986C24.9144 24.769 25.1781 24.8882 25.3928 25.0491C25.7482 25.3157 25.875 25.6207 25.875 25.875C25.875 26.1292 25.7482 26.4343 25.3928 26.7008C25.1781 26.8618 24.9144 26.981 24.625 27.0513Z" fill="white"/>
<path fill-rule="evenodd" clip-rule="evenodd" d="M24 15.875C19.5127 15.875 15.875 19.5127 15.875 24C15.875 28.4873 19.5127 32.125 24 32.125C28.4873 32.125 32.125 28.4873 32.125 24C32.125 19.5127 28.4873 15.875 24 15.875ZM24.625 19C24.625 18.6548 24.3452 18.375 24 18.375C23.6548 18.375 23.375 18.6548 23.375 19V19.6797C22.8526 19.7722 22.3544 19.9823 21.9422 20.3098C21.3485 20.7814 21.0146 21.4344 21.0146 22.125C21.0146 22.8156 21.3485 23.4686 21.9422 23.9402C22.3609 24.2728 22.8606 24.4792 23.375 24.5703V27.0513C23.0857 26.9809 22.822 26.8618 22.6074 26.7008L21.875 26.1515C21.5989 25.9444 21.2071 26.0003 21 26.2765C20.7929 26.5526 20.8489 26.9444 21.125 27.1515L21.8574 27.7008C22.3017 28.0341 22.8316 28.238 23.375 28.3253V29C23.375 29.3452 23.6548 29.625 24 29.625C24.3452 29.625 24.625 29.3452 24.625 29V28.3253C25.1685 28.238 25.6984 28.0341 26.1428 27.7008C26.7637 27.2351 27.125 26.5804 27.125 25.875C27.125 25.1695 26.7637 24.5148 26.1428 24.0492C25.6984 23.7159 25.1685 23.5119 24.625 23.4247V20.9605C24.866 21.0288 25.0908 21.1382 25.2801 21.2886L25.6258 21.5632C25.8961 21.7779 26.2893 21.7329 26.504 21.4626C26.7187 21.1923 26.6736 20.7992 26.4034 20.5845L26.0576 20.3098C25.6454 19.9823 25.1473 19.7723 24.625 19.6797V19Z" fill="white"/>
</svg>
