<svg width="48" height="48" viewBox="0 0 48 48" fill="none" xmlns="http://www.w3.org/2000/svg">
<rect x="0.5" y="0.5" width="47" height="47" rx="11.5" fill="#DC362E"/>
<rect x="0.5" y="0.5" width="47" height="47" rx="11.5" stroke="#E9E9E9"/>
<path fill-rule="evenodd" clip-rule="evenodd" d="M18.3051 16.1845V16.8988C17.4427 17.0222 16.5893 17.1735 15.7458 17.3519C15.4179 17.4212 15.203 17.7369 15.2588 18.0674C15.6842 20.5871 17.7835 22.5374 20.3743 22.7337C21.029 23.2684 21.8071 23.6589 22.6597 23.8558C22.5773 24.8293 22.2471 25.7313 21.7323 26.5H21.1174C20.2545 26.5 19.5549 27.1996 19.5549 28.0625V30.25H18.9298C17.8943 30.25 17.0548 31.0895 17.0548 32.125C17.0548 32.4702 17.3346 32.75 17.6798 32.75H30.1798C30.525 32.75 30.8048 32.4702 30.8048 32.125C30.8048 31.0895 29.9653 30.25 28.9298 30.25H28.3049V28.0625C28.3049 27.1996 27.6053 26.5 26.7424 26.5H26.127C25.6125 25.7314 25.2825 24.8294 25.2001 23.8559C26.0528 23.659 26.8311 23.2685 27.4859 22.7337C30.0768 22.5374 32.176 20.5871 32.6014 18.0674C32.6572 17.7369 32.4424 17.4212 32.1144 17.3519C31.2709 17.1735 30.4175 17.0222 29.5551 16.8988V16.1845C29.5551 15.8692 29.3203 15.6033 29.0074 15.5643C27.3439 15.3568 25.6493 15.25 23.9301 15.25C22.2109 15.25 20.5163 15.3568 18.8528 15.5643C18.5399 15.6033 18.3051 15.8692 18.3051 16.1845ZM18.3051 18.375C18.3051 19.3718 18.5647 20.3083 19.0195 21.1202C17.8885 20.6139 17.0115 19.6415 16.6334 18.4474C17.1864 18.3402 17.7438 18.245 18.3051 18.162V18.375ZM29.5551 18.375V18.162C30.1165 18.245 30.6738 18.3402 31.2269 18.4474C30.8488 19.6415 29.9717 20.6139 28.8407 21.1202C29.2955 20.3083 29.5551 19.3718 29.5551 18.375Z" fill="white"/>
</svg>
