<svg width="47" height="47" viewBox="0 0 47 47" fill="none" xmlns="http://www.w3.org/2000/svg">
<circle cx="23.2437" cy="23.2437" r="22.7492" fill="white" stroke="#E9E9E9" stroke-width="0.989094"/>
<path d="M20.2437 23.9937L22.4937 26.2437L26.2437 20.9937M32.2437 23.2437C32.2437 24.512 31.614 25.6332 30.6503 26.3119C30.8517 27.4731 30.5041 28.7109 29.6074 29.6076C28.7107 30.5043 27.4729 30.852 26.3117 30.6506C25.633 31.6142 24.5118 32.2437 23.2437 32.2437C21.9755 32.2437 20.8544 31.6142 20.1757 30.6507C19.0143 30.8523 17.7762 30.5047 16.8794 29.6078C15.9825 28.711 15.6349 27.4729 15.8365 26.3115C14.8731 25.6328 14.2437 24.5118 14.2437 23.2437C14.2437 21.9756 14.8731 20.8545 15.8366 20.1758C15.6351 19.0145 15.9828 17.7765 16.8795 16.8798C17.7763 15.983 19.0143 15.6354 20.1756 15.8369C20.8543 14.8733 21.9754 14.2437 23.2437 14.2437C24.5118 14.2437 25.633 14.8732 26.3116 15.8368C27.473 15.6352 28.7111 15.9828 29.6079 16.8796C30.5048 17.7765 30.8524 19.0145 30.6508 20.1759C31.6142 20.8546 32.2437 21.9756 32.2437 23.2437Z" stroke="#232323" stroke-width="1.5" stroke-linecap="round" stroke-linejoin="round"/>
</svg>
