<svg width="65" height="64" viewBox="0 0 65 64" fill="none" xmlns="http://www.w3.org/2000/svg">
<rect x="0.5" width="64" height="64" rx="16" fill="#FBEBEA"/>
<path fill-rule="evenodd" clip-rule="evenodd" d="M33.5023 18.5401C33.0979 18.1572 32.4647 18.1572 32.0604 18.5401C29.2411 21.2102 25.4369 22.8462 21.2483 22.8462C21.1816 22.8462 21.1151 22.8458 21.0487 22.845C20.591 22.8393 20.1826 23.1311 20.0396 23.5659C19.4629 25.32 19.1514 27.1932 19.1514 29.137C19.1514 37.4436 24.8327 44.4207 32.52 46.3992C32.6914 46.4434 32.8712 46.4434 33.0427 46.3992C40.73 44.4207 46.4113 37.4436 46.4113 29.137C46.4113 27.1932 46.0997 25.32 45.523 23.5659C45.3801 23.1311 44.9716 22.8393 44.514 22.845C44.4475 22.8458 44.381 22.8462 44.3144 22.8462C40.1258 22.8462 36.3216 21.2102 33.5023 18.5401ZM37.8283 29.7462C38.1649 29.275 38.0558 28.6202 37.5846 28.2837C37.1134 27.9471 36.4586 28.0562 36.122 28.5274L31.5991 34.8595L29.3289 32.5893C28.9194 32.1798 28.2556 32.1798 27.8461 32.5893C27.4367 32.9987 27.4367 33.6626 27.8461 34.072L30.9915 37.2174C31.2094 37.4353 31.5122 37.5463 31.8193 37.5209C32.1265 37.4955 32.4069 37.3362 32.586 37.0854L37.8283 29.7462Z" fill="#DC362E"/>
</svg>
