<svg width="48" height="48" viewBox="0 0 48 48" fill="none" xmlns="http://www.w3.org/2000/svg">
<rect x="0.5" y="0.5" width="47" height="47" rx="11.5" fill="#DC362E"/>
<rect x="0.5" y="0.5" width="47" height="47" rx="11.5" stroke="#E9E9E9"/>
<path d="M23.7498 16.3377C23.9094 16.268 24.0908 16.268 24.2503 16.3377C27.3493 17.6917 30.2864 19.3469 33.0246 21.2662C33.2228 21.4051 33.3229 21.6459 33.2818 21.8844C33.2406 22.1229 33.0654 22.3161 32.8322 22.3805C32.2614 22.538 31.6956 22.7077 31.1348 22.8886C28.859 23.6226 26.6681 24.5461 24.581 25.6406L24.5782 25.642C24.4836 25.6916 24.3892 25.7416 24.295 25.792C24.1109 25.8903 23.8899 25.8903 23.7059 25.792C23.6108 25.7412 23.5155 25.6907 23.4199 25.6406C22.3879 25.0994 21.3305 24.6 20.25 24.1446V23.9582C20.25 23.8488 20.3062 23.7516 20.3931 23.699C21.6474 22.9391 22.9411 22.238 24.2706 21.5994C24.5818 21.45 24.7128 21.0766 24.5634 20.7654C24.4139 20.4543 24.0405 20.3232 23.7294 20.4726C22.3633 21.1288 21.034 21.8492 19.7454 22.6299C19.3676 22.8588 19.1136 23.2334 19.0301 23.6531C18.3176 23.379 17.5958 23.1238 16.8652 22.8882C16.3046 22.7073 15.7387 22.538 15.168 22.3805C14.9347 22.3161 14.7596 22.1228 14.7184 21.8844C14.6772 21.6459 14.7774 21.4051 14.9755 21.2662C17.7137 19.3469 20.6508 17.6917 23.7498 16.3377Z" fill="white"/>
<path d="M24.8841 26.8945C26.9164 25.8085 29.0517 24.8905 31.2715 24.1588C31.3834 25.3378 31.4548 26.5285 31.4844 27.7295C31.4907 27.9872 31.3382 28.2223 31.1004 28.3217C28.7244 29.3136 26.4645 30.5283 24.3466 31.9397C24.1367 32.0795 23.8633 32.0795 23.6534 31.9397C21.5356 30.5283 19.2756 29.3136 16.8997 28.3217C16.6618 28.2223 16.5093 27.9872 16.5156 27.7295C16.5452 26.5284 16.6167 25.3376 16.7286 24.1585C17.4961 24.4115 18.2535 24.6867 19 24.9835V26.0422C18.6264 26.2583 18.375 26.6623 18.375 27.1249C18.375 27.5377 18.5751 27.9037 18.8835 28.1314C18.8089 28.4486 18.6985 28.7589 18.5523 29.0562C18.9296 29.2342 19.3036 29.418 19.6742 29.6074C19.8854 29.178 20.0384 28.7273 20.1335 28.2672C20.5704 28.0724 20.875 27.6342 20.875 27.1249C20.875 26.6623 20.6236 26.2583 20.25 26.0422V25.5049C21.2262 25.9314 22.1824 26.3952 23.1168 26.8945C23.669 27.1895 24.3319 27.1895 24.8841 26.8945Z" fill="white"/>
<path d="M17.7185 30.2185C18.0678 29.8692 18.3459 29.4758 18.5523 29.0562C18.9296 29.2342 19.3036 29.418 19.6742 29.6074C19.4088 30.1473 19.0514 30.6534 18.6024 31.1024C18.3583 31.3465 17.9626 31.3465 17.7185 31.1024C17.4744 30.8583 17.4744 30.4626 17.7185 30.2185Z" fill="white"/>
</svg>
